<svg xmlns="http://www.w3.org/2000/svg" viewBox="0 0 512 512">
    <circle cx="256" cy="256" r="256" fill="#fdc00f"/>
    <path d="M511.089 276.756c-.666-.783-111.601-111.821-112.804-112.614-1.894-2.918-4.91-4.762-8.643-4.762l-.169.02-.159-.02c-3.092 0-6.077 1.326-8.637 3.43-.635-.778-1.372-1.428-2.243-1.889-1.162-1.925-2.755-3.415-5.064-3.758l-1.07.005c-.256-.287-12.201-12.457-13.071-13.128-1.623-1.254-3.497-1.49-5.412-1.219l-.701-.369c-.42-.901-10.179-10.957-11.044-11.628-2.785-2.156-6.277-1.449-9.482.056-.609-.824-16.399-16.85-17.961-17.516-5.299-2.263-10.532 3.272-13.619 7.045l-.097-.077c-.174-.102-11.085-11.571-12.283-12.283-1.388-.824-2.852-1.034-4.316-.845-.246-.512-9.708-10.23-10.122-10.701-4.178-4.772-12.416-.993-16.604 1.044-3.881-2.58-11.607-7.424-16.384-3.246-3.016 2.637-2.652 6.892-1.439 10.737a62.24 62.24 0 0 0-2.145.998c-3.881-2.58-11.607-7.424-16.384-3.246-2.227 1.951-2.57 4.787-2.13 7.685-1.925-.128-3.748-.046-5.304.056l-.835-.737c-.927-1.091-1.951-2.156-3.072-3.072-2.888-3.405-6.835-6.707-11.09-5.192-6.042 2.145-5.565 11.32-5.146 16.02-1.807 1.219-4.342 3.057-6.359 5.258-2.877-3.359-6.774-6.554-10.977-5.059-6.042 2.145-5.565 11.32-5.146 16.02-1.997 1.347-4.905 3.441-6.994 5.96-2.806-3.072-6.441-5.719-10.342-4.337-6.042 2.145-5.565 11.32-5.146 16.02-2.033 1.372-4.992 3.512-7.091 6.093-2.79-3.021-6.39-5.596-10.245-4.224-2.964 1.055-4.347 3.804-4.951 6.881-1.326-.466-2.683-.788-4.07-.788-7.255 0-11.894 6.907-10.583 15.334h-.036l43.587 244.618 92.134 92.134h2.524l.067.384c2.007.041 3.973.149 5.97.149C390.39 512 500.516 408.422 511.089 276.756z" fill="#f29a00"/>
    <path d="M116.659 181.171h276.726c-1.28-4.941-8.018-8.11-11.889-9.605-.604-4.562-1.92-13.476-8.125-14.403-4.956-.742-8.371 4.209-10.516 8.433-1.147-1.961-2.488-3.732-3.553-5.018 1.7-4.275 4.9-12.698-.067-16.538-5.018-3.881-12.375 1.413-16.092 4.224l-.41-.164-.589-.737c1.7-4.275 4.9-12.698-.067-16.538-5.018-3.881-12.375 1.413-16.092 4.224l-1.28-.512c-1.869-2.145-4.142-3.973-5.832-5.187.563-4.567 1.536-13.522-4.234-15.985-5.837-2.488-11.617 4.49-14.505 8.146-2.248-.312-5.55-.696-8.637-.353.952-4.603 1.408-10.573-2.857-13.107-5.453-3.241-12.109 2.913-15.457 6.149a76.422 76.422 0 0 0-1.556-.41l-.543-1.044c2.488-3.871 7.25-11.52 3.118-16.241-4.178-4.772-12.416-.993-16.604 1.05-3.881-2.58-11.607-7.424-16.384-3.246-3.016 2.637-2.652 6.892-1.439 10.737a62.24 62.24 0 0 0-2.145.998c-3.881-2.58-11.607-7.424-16.384-3.246-2.227 1.951-2.57 4.787-2.13 7.685-2.309-.154-4.577-.015-6.267.113-2.657-3.825-8.059-11.177-14.034-9.052-6.042 2.145-5.565 11.32-5.146 16.02-1.807 1.219-4.342 3.057-6.359 5.258-2.877-3.359-6.774-6.554-10.977-5.059-6.042 2.145-5.565 11.32-5.146 16.02-1.997 1.347-4.905 3.441-6.994 5.965-2.806-3.072-6.441-5.719-10.342-4.337-6.042 2.145-5.565 11.32-5.146 16.02-2.033 1.372-4.992 3.512-7.091 6.093-2.796-3.021-6.39-5.596-10.245-4.224-6.042 2.145-5.565 11.32-5.146 16.02-3.404 2.287-9.492 6.741-9.564 11.851z" fill="#fff78a"/>
    <path d="M216.781 117.908a5.576 5.576 0 1 0 0 11.152 5.576 5.576 0 0 0 0-11.152zm-24.438 11.152c-3.077 0-5.576 2.499-5.576 5.576s2.499 5.576 5.576 5.576a5.576 5.576 0 0 0 0-11.152zm-14.71 22.067a5.58 5.58 0 0 0-5.576 5.576 5.58 5.58 0 0 0 5.576 5.576 5.58 5.58 0 0 0 5.576-5.576 5.58 5.58 0 0 0-5.576-5.576zm55.281-14.208a5.576 5.576 0 1 0 0 11.152 5.576 5.576 0 0 0 0-11.152zm31.268 8.632a5.576 5.576 0 1 0 0 11.152 5.576 5.576 0 0 0 0-11.152zm-13.906-30.848a5.576 5.576 0 1 0 0 11.152 5.576 5.576 0 0 0 0-11.152zm45.558 19.933c-3.077 0-5.576 2.499-5.576 5.576s2.499 5.576 5.576 5.576 5.576-2.499 5.576-5.576a5.573 5.573 0 0 0-5.576-5.576zm-20.501-7.829c-3.077 0-5.576 2.499-5.576 5.576s2.499 5.576 5.576 5.576a5.575 5.575 0 1 0 0-11.152zm-66.201 24.32a5.58 5.58 0 0 0-5.576 5.576c0 3.077 2.499 5.576 5.576 5.576s5.576-2.499 5.576-5.576a5.577 5.577 0 0 0-5.576-5.576zm86.702 1.075a5.58 5.58 0 0 0-5.576 5.576c0 3.077 2.499 5.576 5.576 5.576s5.576-2.499 5.576-5.576a5.577 5.577 0 0 0-5.576-5.576zm35.799-11.991a5.576 5.576 0 1 0 0 11.152 5.576 5.576 0 0 0 0-11.152zm-8.075 17.567a5.58 5.58 0 0 0-5.576 5.576 5.58 5.58 0 0 0 5.576 5.576c3.077 0 5.576-2.499 5.576-5.576s-2.498-5.576-5.576-5.576zm-78.858-5.576a5.58 5.58 0 0 0-5.576 5.576c0 3.077 2.499 5.576 5.576 5.576s5.576-2.499 5.576-5.576a5.576 5.576 0 0 0-5.576-5.576z" fill="#fbb03b"/>
    <path d="M399.867 175.119c1.531-8.617-3.18-15.739-10.552-15.739-7.25 0-14.126 6.907-15.544 15.334h-.072c1.039-8.433-3.83-15.334-11.085-15.334-7.25 0-13.906 6.907-15.048 15.334h-.072c.763-8.433-4.326-15.334-11.581-15.334-7.25 0-13.681 6.907-14.551 15.334h-.072c.492-8.433-4.823-15.334-12.078-15.334s-13.46 6.907-14.054 15.334h-.072c.22-8.433-5.32-15.334-12.575-15.334-7.25 0-13.235 6.907-13.558 15.334h-.051c-.056-8.433-5.816-15.334-13.066-15.334-7.255 0-13.01 6.907-13.061 15.334h-.072c-.328-8.433-6.313-15.334-13.563-15.334-7.25 0-12.79 6.907-12.564 15.334h-.072c-.599-8.433-6.81-15.334-14.06-15.334-7.25 0-12.564 6.907-12.068 15.334h-.072c-.87-8.433-7.306-15.334-14.556-15.334s-12.339 6.907-11.571 15.334h-.072c-1.147-8.433-7.803-15.334-15.053-15.334s-12.119 6.907-11.075 15.334h-.072c-1.418-8.433-8.3-15.334-15.549-15.334-7.255 0-11.894 6.907-10.583 15.334h-.036l43.587 244.618h201.068l43.162-243.026.313-1.187z" fill="#fff"/>
    <path d="M137.907 174.715c-1.418-8.433-8.3-15.334-15.549-15.334-7.255 0-11.894 6.907-10.583 15.334h-.036l43.587 244.618h18.319l-35.681-244.777.005.159h-.062zm52.465 0c-.87-8.433-7.306-15.334-14.556-15.334-7.255 0-12.344 6.907-11.576 15.334h-.036l27.74 244.618h18.319l-19.82-244.777-.005.159h-.066zm52.459 0c-.328-8.433-6.308-15.334-13.563-15.334s-12.79 6.907-12.57 15.334h-.036l11.889 244.618h18.319l-3.963-244.777-.015.159h-.061z" fill="#fc611f"/>
    <path d="M389.315 159.38c-7.25 0-14.126 6.907-15.544 15.334h-.072c1.039-8.433-3.83-15.334-11.085-15.334-7.25 0-13.906 6.907-15.048 15.334h-.072c.763-8.433-4.326-15.334-11.581-15.334-7.25 0-13.681 6.907-14.551 15.334h-.072c.492-8.433-4.823-15.334-12.078-15.334s-13.46 6.907-14.054 15.334h-.072c.22-8.433-5.32-15.334-12.575-15.334-7.25 0-13.235 6.907-13.558 15.334h-.051c-.056-8.422-5.806-15.319-13.051-15.334v259.948h100.541l43.162-243.026.312-1.188c1.532-8.612-3.179-15.734-10.551-15.734z" fill="#d7eced"/>
    <path d="M295.296 174.715c.22-8.433-5.315-15.334-12.57-15.334s-13.235 6.907-13.563 15.334h-.036l-3.958 244.618h18.319l11.899-244.777-.026.159h-.065zm52.536 0h-.072c.768-8.433-4.321-15.334-11.576-15.334s-13.686 6.907-14.556 15.334h-.036l-19.809 244.618h18.319l27.755-244.777-.025.159zm52.393 0c1.316-8.433-3.328-15.334-10.583-15.334s-14.131 6.907-15.549 15.334h-.036l-35.656 244.618h18.319l43.612-244.777-.046.159h-.061z" fill="#e64500"/>
    <ellipse cx="256.563" cy="312.73" rx="88.581" ry="45.548" fill="#fc611f"/>
    <path d="M255.852 267.167v91.1c48.922 0 88.581-20.393 88.581-45.548 0-25.154-39.66-45.552-88.581-45.552z" fill="#e64500"/>
    <ellipse cx="255.852" cy="312.73" rx="72.141" ry="31.027" fill="#fff"/>
    <path d="M256.579 281.687v62.06c39.511-.169 71.424-13.988 71.424-31.027 0-17.045-31.913-30.864-71.424-31.033z" fill="#d7eced"/>
</svg>
